<svg width="54" height="40" viewBox="0 0 54 40" fill="none" xmlns="http://www.w3.org/2000/svg">
<path d="M14.7662 23.7485C14.7662 24.8806 14.6407 25.9372 14.44 26.8931L20.3626 31.3459L17.7777 35.195L12.5577 31.195C11.8551 32.151 10.9767 32.9309 9.94777 33.6352C8.89371 34.2893 7.63893 34.8176 6.23355 35.195L4 31.3962C5.9073 30.868 7.31268 29.9874 8.21615 28.7547C9.11959 27.5472 9.57132 25.8869 9.57132 23.7233V14.4152H14.7662V23.7485ZM26.4108 35.4969H21.2159V14.2139H26.4108V35.4969ZM50 27.3208V36H30.1742V27.3208H50ZM41.7183 14.4655V18.5158H37.6026V18.868C37.6026 19.0693 37.5775 19.2453 37.5775 19.4215C37.5524 19.6227 37.5273 19.7988 37.5022 19.9749L42.672 22.7925L39.8612 26.39L35.6702 23.6982C34.315 25.107 32.3575 26.0126 29.8228 26.39L27.5893 22.5913C29.1453 22.2894 30.3498 21.8617 31.178 21.2831C31.9811 20.7296 32.4077 19.8995 32.4077 18.8428V18.5158H28.5429V14.4655H41.7183ZM50 14.2139V26.4403H44.805V21.2831L42.2956 21.8366V17.0819L44.805 16.5284V14.2139H50ZM35.369 30.868V32.4528H44.805V30.868H35.369Z" fill="white"/>
<g filter="url(#filter0_d_81_1053)">
<path d="M14.2495 4C19.8961 4.00005 24.4736 8.59473 24.4736 14.2624C24.4736 16.7524 23.5894 19.0349 22.1199 20.8121L26.1929 25.0455C26.7652 25.6405 26.7485 26.5884 26.1558 27.1629C25.5632 27.7375 24.6185 27.7211 24.0464 27.1261L19.8996 22.8156C18.2809 23.8953 16.3385 24.5248 14.2495 24.5248C8.60274 24.5248 4.02507 19.9301 4.02502 14.2624C4.02502 8.59469 8.6027 4 14.2495 4ZM14.1176 6.46632C9.80383 6.46637 6.30667 9.97652 6.30664 14.3063C6.30664 18.636 9.80383 22.1461 14.1176 22.1461C18.4314 22.1461 21.9285 18.6361 21.9285 14.3063C21.9283 9.97644 18.4312 6.46632 14.1176 6.46632Z" fill="url(#paint0_linear_81_1053)"/>
<path d="M14.1178 22.1458C18.4316 22.1458 21.9287 18.6358 21.9287 14.306C21.9287 9.97608 18.4316 6.46603 14.1178 6.46603C9.80399 6.46603 6.30695 9.97608 6.30695 14.306C6.30695 18.6358 9.80399 22.1458 14.1178 22.1458Z" fill="#00C4B4" fill-opacity="0.08"/>
<path d="M14.1179 6.6936C18.307 6.69364 21.703 10.1022 21.703 14.3068C21.703 18.5115 18.307 21.9201 14.1179 21.9201C9.92889 21.9201 6.5329 18.5115 6.5329 14.3068C6.5329 10.1022 9.92885 6.6936 14.1179 6.6936Z" stroke="#00C4B4" stroke-opacity="0.08"/>
</g>
<defs>
<filter id="filter0_d_81_1053" x="0.0250244" y="4" width="30.5864" height="31.5833" filterUnits="userSpaceOnUse" color-interpolation-filters="sRGB">
<feFlood flood-opacity="0" result="BackgroundImageFix"/>
<feColorMatrix in="SourceAlpha" type="matrix" values="0 0 0 0 0 0 0 0 0 0 0 0 0 0 0 0 0 0 127 0" result="hardAlpha"/>
<feOffset dy="4"/>
<feGaussianBlur stdDeviation="2"/>
<feComposite in2="hardAlpha" operator="out"/>
<feColorMatrix type="matrix" values="0 0 0 0 0 0 0 0 0 0 0 0 0 0 0 0 0 0 0.2 0"/>
<feBlend mode="normal" in2="BackgroundImageFix" result="effect1_dropShadow_81_1053"/>
<feBlend mode="normal" in="SourceGraphic" in2="effect1_dropShadow_81_1053" result="shape"/>
</filter>
<linearGradient id="paint0_linear_81_1053" x1="15.3184" y1="4" x2="15.3184" y2="27.5833" gradientUnits="userSpaceOnUse">
<stop stop-color="#4CD6CB"/>
<stop offset="1" stop-color="#00C4B4"/>
</linearGradient>
</defs>
</svg>
